<mxfile host="app.diagrams.net" modified="2023-01-21T09:29:13.669Z" agent="5.0 (Windows NT 10.0; Win64; x64) AppleWebKit/537.36 (KHTML, like Gecko) Chrome/109.0.0.0 Safari/537.36" etag="eECKI7ew8--Y9wwtFoMn" version="20.8.10" type="github">
  <diagram id="prtHgNgQTEPvFCAcTncT" name="Page-1">
    <mxGraphModel dx="1195" dy="663" grid="1" gridSize="10" guides="1" tooltips="1" connect="1" arrows="1" fold="1" page="1" pageScale="1" pageWidth="827" pageHeight="1169" math="0" shadow="0">
      <root>
        <mxCell id="0" />
        <mxCell id="1" parent="0" />
        <mxCell id="dNxyNK7c78bLwvsdeMH5-19" value="notenrechner light" style="swimlane;html=1;childLayout=stackLayout;resizeParent=1;resizeParentMax=0;horizontal=0;startSize=20;horizontalStack=0;fillColor=#dae8fc;strokeColor=#000000;" parent="1" vertex="1">
          <mxGeometry x="530" y="340" width="930" height="640" as="geometry" />
        </mxCell>
        <mxCell id="dNxyNK7c78bLwvsdeMH5-27" value="" style="edgeStyle=orthogonalEdgeStyle;rounded=0;orthogonalLoop=1;jettySize=auto;html=1;dashed=1;endArrow=none;endFill=0;exitX=0;exitY=0.5;exitDx=0;exitDy=0;" parent="dNxyNK7c78bLwvsdeMH5-19" source="b_qoU-KaGP17PUoCxNol-17" target="dNxyNK7c78bLwvsdeMH5-26" edge="1">
          <mxGeometry relative="1" as="geometry">
            <mxPoint x="180" y="90" as="sourcePoint" />
          </mxGeometry>
        </mxCell>
        <mxCell id="dNxyNK7c78bLwvsdeMH5-20" value="frontend" style="swimlane;html=1;startSize=20;horizontal=0;fillColor=#fff2cc;strokeColor=#d6b656;" parent="dNxyNK7c78bLwvsdeMH5-19" vertex="1">
          <mxGeometry x="20" width="910" height="310" as="geometry" />
        </mxCell>
        <mxCell id="b_qoU-KaGP17PUoCxNol-20" style="edgeStyle=orthogonalEdgeStyle;rounded=0;orthogonalLoop=1;jettySize=auto;html=1;exitX=1;exitY=0.5;exitDx=0;exitDy=0;entryX=-0.01;entryY=0.072;entryDx=0;entryDy=0;entryPerimeter=0;fontSize=11;" parent="dNxyNK7c78bLwvsdeMH5-20" source="dNxyNK7c78bLwvsdeMH5-30" target="b_qoU-KaGP17PUoCxNol-13" edge="1">
          <mxGeometry relative="1" as="geometry" />
        </mxCell>
        <mxCell id="dNxyNK7c78bLwvsdeMH5-30" value="main" style="rounded=0;whiteSpace=wrap;html=1;fontFamily=Helvetica;fontSize=12;align=center;fillColor=#fff2cc;strokeColor=#d6b656;" parent="dNxyNK7c78bLwvsdeMH5-20" vertex="1">
          <mxGeometry x="250" y="230" width="60" height="40" as="geometry" />
        </mxCell>
        <mxCell id="b_qoU-KaGP17PUoCxNol-9" value="home" style="rounded=0;whiteSpace=wrap;html=1;fontFamily=Helvetica;fontSize=12;align=center;fillColor=#fff2cc;strokeColor=#d6b656;" parent="dNxyNK7c78bLwvsdeMH5-20" vertex="1">
          <mxGeometry x="250" y="120" width="60" height="40" as="geometry" />
        </mxCell>
        <mxCell id="b_qoU-KaGP17PUoCxNol-11" value="" style="endArrow=classic;startArrow=classic;html=1;rounded=0;fontSize=11;entryX=0.5;entryY=1;entryDx=0;entryDy=0;exitX=0.5;exitY=0;exitDx=0;exitDy=0;" parent="dNxyNK7c78bLwvsdeMH5-20" source="dNxyNK7c78bLwvsdeMH5-30" target="b_qoU-KaGP17PUoCxNol-9" edge="1">
          <mxGeometry width="50" height="50" relative="1" as="geometry">
            <mxPoint x="259" y="100" as="sourcePoint" />
            <mxPoint x="309" y="50" as="targetPoint" />
          </mxGeometry>
        </mxCell>
        <mxCell id="b_qoU-KaGP17PUoCxNol-13" value="pages" style="swimlane;fontStyle=0;childLayout=stackLayout;horizontal=1;startSize=30;horizontalStack=0;resizeParent=1;resizeParentMax=0;resizeLast=0;collapsible=1;marginBottom=0;fontSize=11;fillColor=#dae8fc;strokeColor=#6c8ebf;" parent="dNxyNK7c78bLwvsdeMH5-20" vertex="1">
          <mxGeometry x="449" y="40" width="140" height="210" as="geometry" />
        </mxCell>
        <mxCell id="b_qoU-KaGP17PUoCxNol-14" value="1_einfache-Funktion" style="text;strokeColor=#82b366;fillColor=#d5e8d4;align=left;verticalAlign=middle;spacingLeft=4;spacingRight=4;overflow=hidden;points=[[0,0.5],[1,0.5]];portConstraint=eastwest;rotatable=0;fontSize=11;" parent="b_qoU-KaGP17PUoCxNol-13" vertex="1">
          <mxGeometry y="30" width="140" height="30" as="geometry" />
        </mxCell>
        <mxCell id="b_qoU-KaGP17PUoCxNol-15" value="2_notenanalyse" style="text;strokeColor=#b85450;fillColor=#f8cecc;align=left;verticalAlign=middle;spacingLeft=4;spacingRight=4;overflow=hidden;points=[[0,0.5],[1,0.5]];portConstraint=eastwest;rotatable=0;fontSize=11;" parent="b_qoU-KaGP17PUoCxNol-13" vertex="1">
          <mxGeometry y="60" width="140" height="30" as="geometry" />
        </mxCell>
        <mxCell id="b_qoU-KaGP17PUoCxNol-16" value="3_datenbrowser" style="text;strokeColor=#b85450;fillColor=#f8cecc;align=left;verticalAlign=middle;spacingLeft=4;spacingRight=4;overflow=hidden;points=[[0,0.5],[1,0.5]];portConstraint=eastwest;rotatable=0;fontSize=11;" parent="b_qoU-KaGP17PUoCxNol-13" vertex="1">
          <mxGeometry y="90" width="140" height="30" as="geometry" />
        </mxCell>
        <mxCell id="b_qoU-KaGP17PUoCxNol-17" value="4_query-datenbrowser" style="text;strokeColor=#b85450;fillColor=#f8cecc;align=left;verticalAlign=middle;spacingLeft=4;spacingRight=4;overflow=hidden;points=[[0,0.5],[1,0.5]];portConstraint=eastwest;rotatable=0;fontSize=11;" parent="b_qoU-KaGP17PUoCxNol-13" vertex="1">
          <mxGeometry y="120" width="140" height="30" as="geometry" />
        </mxCell>
        <mxCell id="b_qoU-KaGP17PUoCxNol-18" value="5_bibliothek" style="text;strokeColor=#d79b00;fillColor=#ffe6cc;align=left;verticalAlign=middle;spacingLeft=4;spacingRight=4;overflow=hidden;points=[[0,0.5],[1,0.5]];portConstraint=eastwest;rotatable=0;fontSize=11;" parent="b_qoU-KaGP17PUoCxNol-13" vertex="1">
          <mxGeometry y="150" width="140" height="30" as="geometry" />
        </mxCell>
        <mxCell id="b_qoU-KaGP17PUoCxNol-19" value="6_Einstellungen" style="text;strokeColor=#d79b00;fillColor=#ffe6cc;align=left;verticalAlign=middle;spacingLeft=4;spacingRight=4;overflow=hidden;points=[[0,0.5],[1,0.5]];portConstraint=eastwest;rotatable=0;fontSize=11;" parent="b_qoU-KaGP17PUoCxNol-13" vertex="1">
          <mxGeometry y="180" width="140" height="30" as="geometry" />
        </mxCell>
        <mxCell id="dNxyNK7c78bLwvsdeMH5-21" value="glue" style="swimlane;html=1;startSize=20;horizontal=0;fillColor=#ffe6cc;strokeColor=#d79b00;" parent="dNxyNK7c78bLwvsdeMH5-19" vertex="1">
          <mxGeometry x="20" y="310" width="910" height="120" as="geometry" />
        </mxCell>
        <mxCell id="dNxyNK7c78bLwvsdeMH5-26" value="data_reader" style="rounded=0;whiteSpace=wrap;html=1;fontFamily=Helvetica;fontSize=12;align=center;fillColor=#ffe6cc;strokeColor=#d79b00;" parent="dNxyNK7c78bLwvsdeMH5-21" vertex="1">
          <mxGeometry x="459" y="30" width="80" height="60" as="geometry" />
        </mxCell>
        <mxCell id="dNxyNK7c78bLwvsdeMH5-28" value="&lt;font style=&quot;font-size: 11px;&quot;&gt;data_core&lt;/font&gt;" style="rhombus;whiteSpace=wrap;html=1;fontFamily=Helvetica;fontSize=12;align=center;fillColor=#ffe6cc;strokeColor=#d79b00;" parent="dNxyNK7c78bLwvsdeMH5-21" vertex="1">
          <mxGeometry x="245" y="25" width="70" height="70" as="geometry" />
        </mxCell>
        <mxCell id="b_qoU-KaGP17PUoCxNol-2" value="data_objcts" style="rounded=0;whiteSpace=wrap;html=1;fontFamily=Helvetica;fontSize=12;align=center;fillColor=#fff2cc;strokeColor=#d6b656;" parent="dNxyNK7c78bLwvsdeMH5-21" vertex="1">
          <mxGeometry x="83" y="30" width="80" height="60" as="geometry" />
        </mxCell>
        <mxCell id="b_qoU-KaGP17PUoCxNol-7" value="" style="endArrow=classic;startArrow=classic;html=1;rounded=0;fontSize=7;entryX=1;entryY=0.5;entryDx=0;entryDy=0;exitX=0;exitY=0.5;exitDx=0;exitDy=0;" parent="dNxyNK7c78bLwvsdeMH5-21" source="dNxyNK7c78bLwvsdeMH5-28" target="b_qoU-KaGP17PUoCxNol-2" edge="1">
          <mxGeometry width="50" height="50" relative="1" as="geometry">
            <mxPoint x="239" y="40" as="sourcePoint" />
            <mxPoint x="290" y="-20" as="targetPoint" />
          </mxGeometry>
        </mxCell>
        <mxCell id="b_qoU-KaGP17PUoCxNol-8" value="" style="endArrow=classic;startArrow=classic;html=1;rounded=0;fontSize=7;entryX=1;entryY=0.5;entryDx=0;entryDy=0;" parent="dNxyNK7c78bLwvsdeMH5-21" target="dNxyNK7c78bLwvsdeMH5-28" edge="1">
          <mxGeometry width="50" height="50" relative="1" as="geometry">
            <mxPoint x="459" y="60" as="sourcePoint" />
            <mxPoint x="269" y="80" as="targetPoint" />
          </mxGeometry>
        </mxCell>
        <mxCell id="dNxyNK7c78bLwvsdeMH5-22" value="backend" style="swimlane;html=1;startSize=20;horizontal=0;fillColor=#f8cecc;strokeColor=#b85450;" parent="dNxyNK7c78bLwvsdeMH5-19" vertex="1">
          <mxGeometry x="20" y="430" width="910" height="210" as="geometry" />
        </mxCell>
        <mxCell id="b_qoU-KaGP17PUoCxNol-22" value="appdata" style="swimlane;fontStyle=0;childLayout=stackLayout;horizontal=1;startSize=30;horizontalStack=0;resizeParent=1;resizeParentMax=0;resizeLast=0;collapsible=1;marginBottom=0;fontSize=11;fillColor=#dae8fc;strokeColor=#6c8ebf;" parent="dNxyNK7c78bLwvsdeMH5-22" vertex="1">
          <mxGeometry x="23" y="45" width="140" height="120" as="geometry" />
        </mxCell>
        <mxCell id="b_qoU-KaGP17PUoCxNol-23" value="notenrechnersettings.json" style="text;strokeColor=#82b366;fillColor=#d5e8d4;align=left;verticalAlign=middle;spacingLeft=4;spacingRight=4;overflow=hidden;points=[[0,0.5],[1,0.5]];portConstraint=eastwest;rotatable=0;fontSize=11;" parent="b_qoU-KaGP17PUoCxNol-22" vertex="1">
          <mxGeometry y="30" width="140" height="30" as="geometry" />
        </mxCell>
        <mxCell id="b_qoU-KaGP17PUoCxNol-24" value="/user_data full csv" style="text;strokeColor=#82b366;fillColor=#d5e8d4;align=left;verticalAlign=middle;spacingLeft=4;spacingRight=4;overflow=hidden;points=[[0,0.5],[1,0.5]];portConstraint=eastwest;rotatable=0;fontSize=11;" parent="b_qoU-KaGP17PUoCxNol-22" vertex="1">
          <mxGeometry y="60" width="140" height="30" as="geometry" />
        </mxCell>
        <mxCell id="b_qoU-KaGP17PUoCxNol-25" value="/user_data minimal csv" style="text;strokeColor=#82b366;fillColor=#d5e8d4;align=left;verticalAlign=middle;spacingLeft=4;spacingRight=4;overflow=hidden;points=[[0,0.5],[1,0.5]];portConstraint=eastwest;rotatable=0;fontSize=11;" parent="b_qoU-KaGP17PUoCxNol-22" vertex="1">
          <mxGeometry y="90" width="140" height="30" as="geometry" />
        </mxCell>
        <mxCell id="b_qoU-KaGP17PUoCxNol-33" value="ORA DB 21c XE" style="rounded=0;whiteSpace=wrap;html=1;fontFamily=Helvetica;fontSize=12;align=center;fillColor=#ffe6cc;strokeColor=#d79b00;" parent="dNxyNK7c78bLwvsdeMH5-22" vertex="1">
          <mxGeometry x="579" y="85" width="80" height="60" as="geometry" />
        </mxCell>
        <mxCell id="9ZP6vP0X-BrLRpkdMHOc-2" value="&lt;font style=&quot;font-size: 10px;&quot;&gt;DB/csv connection&lt;/font&gt;" style="rhombus;whiteSpace=wrap;html=1;fontSize=17;fillColor=#f8cecc;strokeColor=#b85450;" parent="dNxyNK7c78bLwvsdeMH5-22" vertex="1">
          <mxGeometry x="300" y="30" width="120" height="110" as="geometry" />
        </mxCell>
        <mxCell id="9ZP6vP0X-BrLRpkdMHOc-6" value="" style="shape=flexArrow;endArrow=classic;startArrow=classic;html=1;rounded=0;fontSize=10;entryX=0.012;entryY=0.417;entryDx=0;entryDy=0;entryPerimeter=0;exitX=1;exitY=0.5;exitDx=0;exitDy=0;" parent="dNxyNK7c78bLwvsdeMH5-22" source="9ZP6vP0X-BrLRpkdMHOc-2" target="b_qoU-KaGP17PUoCxNol-33" edge="1">
          <mxGeometry width="100" height="100" relative="1" as="geometry">
            <mxPoint x="260" y="80" as="sourcePoint" />
            <mxPoint x="360" y="-20" as="targetPoint" />
          </mxGeometry>
        </mxCell>
        <mxCell id="9ZP6vP0X-BrLRpkdMHOc-7" value="" style="shape=flexArrow;endArrow=classic;startArrow=classic;html=1;rounded=0;fontSize=10;entryX=0;entryY=0.5;entryDx=0;entryDy=0;exitX=1;exitY=0.5;exitDx=0;exitDy=0;" parent="dNxyNK7c78bLwvsdeMH5-22" source="b_qoU-KaGP17PUoCxNol-24" target="9ZP6vP0X-BrLRpkdMHOc-2" edge="1">
          <mxGeometry width="100" height="100" relative="1" as="geometry">
            <mxPoint x="190" y="110" as="sourcePoint" />
            <mxPoint x="349.96000000000004" y="135.01999999999975" as="targetPoint" />
          </mxGeometry>
        </mxCell>
        <mxCell id="9ZP6vP0X-BrLRpkdMHOc-10" value="connects to either db or csv&#39;s depending on settings" style="text;html=1;align=center;verticalAlign=middle;whiteSpace=wrap;rounded=0;labelBackgroundColor=#FFFFFF;fontSize=10;fillColor=#dae8fc;strokeColor=#6c8ebf;" parent="dNxyNK7c78bLwvsdeMH5-22" vertex="1">
          <mxGeometry x="325" y="100" width="70" height="60" as="geometry" />
        </mxCell>
        <mxCell id="b_qoU-KaGP17PUoCxNol-6" value="" style="endArrow=classic;startArrow=classic;html=1;rounded=0;fontSize=7;entryX=0.5;entryY=1;entryDx=0;entryDy=0;exitX=0.5;exitY=0;exitDx=0;exitDy=0;" parent="dNxyNK7c78bLwvsdeMH5-19" source="dNxyNK7c78bLwvsdeMH5-28" target="dNxyNK7c78bLwvsdeMH5-30" edge="1">
          <mxGeometry width="50" height="50" relative="1" as="geometry">
            <mxPoint x="279" y="180" as="sourcePoint" />
            <mxPoint x="329" y="130" as="targetPoint" />
          </mxGeometry>
        </mxCell>
        <mxCell id="b_qoU-KaGP17PUoCxNol-21" value="" style="endArrow=none;dashed=1;html=1;rounded=0;fontSize=11;exitX=0.5;exitY=0;exitDx=0;exitDy=0;entryX=1;entryY=0.5;entryDx=0;entryDy=0;" parent="dNxyNK7c78bLwvsdeMH5-19" source="dNxyNK7c78bLwvsdeMH5-26" target="b_qoU-KaGP17PUoCxNol-19" edge="1">
          <mxGeometry width="50" height="50" relative="1" as="geometry">
            <mxPoint x="329" y="410" as="sourcePoint" />
            <mxPoint x="379" y="360" as="targetPoint" />
            <Array as="points">
              <mxPoint x="519" y="290" />
              <mxPoint x="669" y="290" />
              <mxPoint x="669" y="235" />
            </Array>
          </mxGeometry>
        </mxCell>
        <mxCell id="b_qoU-KaGP17PUoCxNol-26" value="" style="endArrow=classic;html=1;rounded=0;fontSize=11;entryX=1;entryY=0.5;entryDx=0;entryDy=0;strokeColor=#FF0000;" parent="dNxyNK7c78bLwvsdeMH5-19" target="b_qoU-KaGP17PUoCxNol-23" edge="1">
          <mxGeometry relative="1" as="geometry">
            <mxPoint x="269" y="250" as="sourcePoint" />
            <mxPoint x="539" y="440" as="targetPoint" />
          </mxGeometry>
        </mxCell>
        <mxCell id="b_qoU-KaGP17PUoCxNol-27" value="&lt;font color=&quot;#ff0000&quot;&gt;config reads&lt;/font&gt;" style="edgeLabel;resizable=0;html=1;align=center;verticalAlign=middle;fontSize=11;" parent="b_qoU-KaGP17PUoCxNol-26" connectable="0" vertex="1">
          <mxGeometry relative="1" as="geometry" />
        </mxCell>
        <mxCell id="b_qoU-KaGP17PUoCxNol-35" value="" style="endArrow=classic;html=1;rounded=0;fontSize=11;entryX=1.027;entryY=0.14;entryDx=0;entryDy=0;strokeColor=#FF0000;exitX=0;exitY=0.5;exitDx=0;exitDy=0;entryPerimeter=0;" parent="dNxyNK7c78bLwvsdeMH5-19" source="b_qoU-KaGP17PUoCxNol-17" target="b_qoU-KaGP17PUoCxNol-22" edge="1">
          <mxGeometry relative="1" as="geometry">
            <mxPoint x="279" y="260" as="sourcePoint" />
            <mxPoint x="193" y="530" as="targetPoint" />
          </mxGeometry>
        </mxCell>
        <mxCell id="b_qoU-KaGP17PUoCxNol-36" value="&lt;font color=&quot;#ff0000&quot;&gt;query&lt;/font&gt;" style="edgeLabel;resizable=0;html=1;align=center;verticalAlign=middle;fontSize=11;" parent="b_qoU-KaGP17PUoCxNol-35" connectable="0" vertex="1">
          <mxGeometry relative="1" as="geometry" />
        </mxCell>
        <mxCell id="b_qoU-KaGP17PUoCxNol-37" value="" style="endArrow=classic;html=1;rounded=0;fontSize=11;entryX=0.25;entryY=0;entryDx=0;entryDy=0;strokeColor=#FF0000;exitX=0;exitY=0.5;exitDx=0;exitDy=0;" parent="dNxyNK7c78bLwvsdeMH5-19" source="b_qoU-KaGP17PUoCxNol-17" target="b_qoU-KaGP17PUoCxNol-33" edge="1">
          <mxGeometry relative="1" as="geometry">
            <mxPoint x="289" y="270" as="sourcePoint" />
            <mxPoint x="203" y="540" as="targetPoint" />
          </mxGeometry>
        </mxCell>
        <mxCell id="b_qoU-KaGP17PUoCxNol-38" value="&lt;font color=&quot;#ff0000&quot;&gt;query&lt;/font&gt;" style="edgeLabel;resizable=0;html=1;align=center;verticalAlign=middle;fontSize=11;" parent="b_qoU-KaGP17PUoCxNol-37" connectable="0" vertex="1">
          <mxGeometry relative="1" as="geometry" />
        </mxCell>
        <mxCell id="9ZP6vP0X-BrLRpkdMHOc-17" value="" style="endArrow=classic;html=1;rounded=0;fontSize=10;fontColor=#000000;exitX=-0.021;exitY=0.472;exitDx=0;exitDy=0;exitPerimeter=0;entryX=0.207;entryY=0.283;entryDx=0;entryDy=0;entryPerimeter=0;" parent="dNxyNK7c78bLwvsdeMH5-19" source="b_qoU-KaGP17PUoCxNol-19" target="9ZP6vP0X-BrLRpkdMHOc-2" edge="1">
          <mxGeometry relative="1" as="geometry">
            <mxPoint x="330" y="420" as="sourcePoint" />
            <mxPoint x="430" y="420" as="targetPoint" />
          </mxGeometry>
        </mxCell>
        <mxCell id="9ZP6vP0X-BrLRpkdMHOc-19" value="&lt;span style=&quot;background-color: rgb(248, 249, 250);&quot;&gt;get current config from setting&lt;/span&gt;" style="edgeLabel;html=1;align=center;verticalAlign=middle;resizable=0;points=[];fontSize=10;fontColor=#000000;" parent="9ZP6vP0X-BrLRpkdMHOc-17" vertex="1" connectable="0">
          <mxGeometry x="0.3116" y="1" relative="1" as="geometry">
            <mxPoint as="offset" />
          </mxGeometry>
        </mxCell>
        <mxCell id="b_qoU-KaGP17PUoCxNol-39" value="color explanation" style="swimlane;fontStyle=0;childLayout=stackLayout;horizontal=1;startSize=30;horizontalStack=0;resizeParent=1;resizeParentMax=0;resizeLast=0;collapsible=1;marginBottom=0;labelBackgroundColor=none;strokeColor=#6c8ebf;fontSize=19;fillColor=#dae8fc;" parent="1" vertex="1">
          <mxGeometry x="200" y="160" width="240" height="150" as="geometry" />
        </mxCell>
        <mxCell id="b_qoU-KaGP17PUoCxNol-40" value="implemented" style="text;strokeColor=#82b366;fillColor=#d5e8d4;align=left;verticalAlign=middle;spacingLeft=4;spacingRight=4;overflow=hidden;points=[[0,0.5],[1,0.5]];portConstraint=eastwest;rotatable=0;labelBackgroundColor=none;fontSize=19;" parent="b_qoU-KaGP17PUoCxNol-39" vertex="1">
          <mxGeometry y="30" width="240" height="30" as="geometry" />
        </mxCell>
        <mxCell id="b_qoU-KaGP17PUoCxNol-41" value="almost implemented" style="text;strokeColor=#d6b656;fillColor=#fff2cc;align=left;verticalAlign=middle;spacingLeft=4;spacingRight=4;overflow=hidden;points=[[0,0.5],[1,0.5]];portConstraint=eastwest;rotatable=0;labelBackgroundColor=none;fontSize=19;" parent="b_qoU-KaGP17PUoCxNol-39" vertex="1">
          <mxGeometry y="60" width="240" height="30" as="geometry" />
        </mxCell>
        <mxCell id="b_qoU-KaGP17PUoCxNol-42" value="barely implemented" style="text;strokeColor=#d79b00;fillColor=#ffe6cc;align=left;verticalAlign=middle;spacingLeft=4;spacingRight=4;overflow=hidden;points=[[0,0.5],[1,0.5]];portConstraint=eastwest;rotatable=0;labelBackgroundColor=none;fontSize=19;" parent="b_qoU-KaGP17PUoCxNol-39" vertex="1">
          <mxGeometry y="90" width="240" height="30" as="geometry" />
        </mxCell>
        <mxCell id="b_qoU-KaGP17PUoCxNol-43" value="not implemented at all" style="text;strokeColor=#b85450;fillColor=#f8cecc;align=left;verticalAlign=middle;spacingLeft=4;spacingRight=4;overflow=hidden;points=[[0,0.5],[1,0.5]];portConstraint=eastwest;rotatable=0;labelBackgroundColor=none;fontSize=19;" parent="b_qoU-KaGP17PUoCxNol-39" vertex="1">
          <mxGeometry y="120" width="240" height="30" as="geometry" />
        </mxCell>
        <mxCell id="9ZP6vP0X-BrLRpkdMHOc-1" value="&lt;h1&gt;&lt;font style=&quot;font-size: 32px;&quot;&gt;Revamp 01&lt;/font&gt;&lt;/h1&gt;&lt;div&gt;&lt;font style=&quot;font-size: 17px;&quot;&gt;This is the first in a list of possible alternative app layouts. This specific layout gets rid of the listener and replaces it with an event-driven system instead. It also eliminates the need for csv files entirely when using a connected database&amp;nbsp;&lt;/font&gt;&lt;/div&gt;" style="text;html=1;strokeColor=#666666;fillColor=#f5f5f5;spacing=5;spacingTop=-20;whiteSpace=wrap;overflow=hidden;rounded=0;fontColor=#333333;" parent="1" vertex="1">
          <mxGeometry x="790" y="50" width="370" height="190" as="geometry" />
        </mxCell>
        <mxCell id="9ZP6vP0X-BrLRpkdMHOc-4" value="" style="endArrow=classic;html=1;rounded=0;fontSize=10;exitX=0;exitY=1;exitDx=0;exitDy=0;" parent="1" source="dNxyNK7c78bLwvsdeMH5-26" edge="1">
          <mxGeometry relative="1" as="geometry">
            <mxPoint x="800" y="800" as="sourcePoint" />
            <mxPoint x="910" y="800" as="targetPoint" />
          </mxGeometry>
        </mxCell>
        <mxCell id="9ZP6vP0X-BrLRpkdMHOc-5" value="Read/write data" style="edgeLabel;resizable=0;html=1;align=center;verticalAlign=middle;fontSize=10;labelBackgroundColor=#FF3333;" parent="9ZP6vP0X-BrLRpkdMHOc-4" connectable="0" vertex="1">
          <mxGeometry relative="1" as="geometry" />
        </mxCell>
      </root>
    </mxGraphModel>
  </diagram>
</mxfile>
